<svg width="48" height="48" viewBox="0 0 48 48" fill="none" xmlns="http://www.w3.org/2000/svg">
<g id="Frame 1073713399">
<path id="Vector" d="M34.7848 30.0835C35.1141 31.4649 35.3336 33.2182 35.4434 34.3871C35.4983 34.759 35.3336 35.1309 35.0043 35.3966C34.675 35.6622 34.2908 35.7154 33.9066 35.6091L25.1796 33.3245C24.5209 35.981 21.9961 38 19.0323 38C16.0684 38 13.4887 35.981 12.8849 33.1651C12.7203 32.5275 13.1594 31.9431 13.818 31.7837C14.4766 31.6243 15.0804 32.0493 15.2451 32.6869C15.6293 34.4402 17.2759 35.7154 19.0871 35.7154C21.2826 35.7154 23.039 34.0152 23.039 31.8899C23.039 31.518 23.2037 31.1992 23.4781 30.9867C23.7525 30.7742 24.1367 30.7211 24.5209 30.7742L32.8637 32.9526C32.6442 31.4118 32.3698 29.9772 32.2051 29.6053C31.9307 29.2334 31.9307 28.7552 32.1502 28.3833C32.3697 28.0114 32.8637 27.7989 33.3028 27.852C33.4675 27.852 33.6322 27.9051 33.7419 27.9051C35.9374 27.9051 37.6938 26.2049 37.6938 24.0797C37.6938 21.9545 35.9374 20.2543 33.7419 20.2543C33.5773 20.2543 33.3577 20.2543 33.1382 20.3074C33.0833 20.3074 33.0284 20.3074 32.9186 20.3074L29.1863 22.8046C28.9668 22.964 28.7472 23.0171 28.5277 23.0171C28.1435 23.0171 27.7593 22.8577 27.5397 22.5389C27.1555 22.0076 27.3202 21.3169 27.869 20.945L32.2051 18.0759C32.26 18.0228 32.3149 18.0228 32.4246 17.9696C32.754 17.3852 32.9186 16.7476 32.9186 16.1101C32.9186 13.9848 31.1622 12.2846 28.9668 12.2846C26.7713 12.2846 25.0149 13.9848 25.0149 16.1101L25.0149 16.1632C25.0149 16.6414 25.0149 21.37 25.0149 24.186C25.0149 25.3017 25.0149 26.2049 25.0149 26.63C25.0149 27.2676 24.466 27.7989 23.8074 27.7989C23.1488 27.7989 22.5999 27.2676 22.5999 26.63C22.5999 26.1518 22.5999 25.2486 22.5999 24.186C22.5999 20.2543 22.5999 16.6945 22.5999 16.1101C22.5999 12.7628 25.454 10 28.9119 10C32.3698 10 35.2239 12.7628 35.2239 16.1101C35.2239 16.8008 35.1141 17.4915 34.8397 18.129C37.7487 18.6603 39.999 21.1575 39.999 24.1328C40.0539 27.1082 37.8035 29.6584 34.7848 30.0835ZM13.324 29.9241C13.8729 29.9241 14.3669 29.5522 14.4766 28.9677C14.5864 28.3302 14.2022 27.7457 13.5436 27.6395C11.6774 27.3207 10.3601 25.7268 10.3601 23.8672C10.3601 21.7419 12.1165 20.0417 14.312 20.0417C14.3669 20.0417 14.4218 20.0417 14.4766 20.0417L18.5383 22.7514C18.7578 22.9108 18.9774 22.9639 19.1969 22.9639C19.5811 22.9639 19.9653 22.8046 20.1849 22.4858C20.5691 21.9545 20.4044 21.2638 19.8556 20.8918L15.739 18.129C15.3548 17.4915 15.1353 16.8008 15.1353 16.0569C15.1353 13.9317 16.8917 12.2315 19.0871 12.2315C19.4713 12.2315 19.8007 12.2846 20.13 12.3909C20.2398 12.444 20.3495 12.444 20.4593 12.4972C21.0631 12.7097 21.7766 12.444 21.9961 11.8596C22.2157 11.2751 21.9413 10.5844 21.3375 10.3719C21.1728 10.3188 20.9533 10.2657 20.7886 10.2125C20.2398 10.0531 19.6909 10 19.0871 10C15.6293 10 12.7752 12.7628 12.7752 16.1101C12.7752 16.7476 12.8849 17.3321 13.0496 17.9165C10.1406 18.5009 8 20.945 8 23.9203C8 26.8425 10.1406 29.3928 13.1045 29.9241C13.2142 29.9241 13.2691 29.9241 13.324 29.9241Z" fill="url(#paint0_linear_15_86)"/>
</g>
<defs>
<linearGradient id="paint0_linear_15_86" x1="22.0001" y1="10" x2="38.4576" y2="60.4908" gradientUnits="userSpaceOnUse">
<stop offset="0.0572101" stop-color="#6E6CC8"/>
<stop offset="0.856144" stop-color="#7BD8C3"/>
</linearGradient>
</defs>
</svg>
