<svg width="217" height="114" viewBox="0 0 217 114" fill="none" xmlns="http://www.w3.org/2000/svg">
<g id="Group">
<g id="Group_2">
<path id="Vector" d="M30.4689 108.716L30.4689 88.3434L21.8651 109.449C20.3653 112.953 20.4443 112.953 17.8395 112.953L15.2346 112.953L5.13103 88.3434L5.13103 112.953C0.000305176 112.953 0.000305176 112.953 0.000305176 108.716L0.000305176 81.8243L2.763 81.8243C7.49906 81.8243 7.49907 81.7428 9.15668 85.7358L16.3397 103.337C16.6554 104.234 17.6816 107.086 17.7605 107.412L19.1813 103.337L26.4433 85.7358C28.022 81.9058 27.943 81.8243 32.1266 81.8243L35.5997 81.8243L35.5997 112.953C30.4689 112.953 30.4689 112.953 30.4689 108.716Z" fill="black"/>
<path id="Vector_2" d="M58.8045 102.607L46.254 102.607C46.254 106.274 48.4641 108.8 52.8844 108.8L58.173 108.8C62.1197 108.8 62.1197 108.8 62.1197 112.956L53.1212 112.956C43.6491 112.956 41.2021 107.007 41.2021 100.406C41.2021 93.8058 43.728 87.6941 53.2791 87.6941C60.5411 87.6941 64.0142 92.339 64.0142 98.3692C64.0142 102.607 64.0142 102.607 58.8045 102.607ZM58.8045 98.3692C58.8834 98.3692 58.8834 98.3692 58.8045 98.3692C58.8834 94.9467 57.3048 91.7686 52.8055 91.7686C46.4118 91.7686 46.254 91.7686 46.254 98.4507L58.8045 98.3692C58.8834 98.4507 58.8045 98.4507 58.8045 98.3692Z" fill="black"/>
<path id="Vector_3" d="M77.9103 92.3363L75.5423 92.3363L75.5423 105.782C75.5423 107.412 76.0159 108.797 77.9103 108.797C81.6991 108.797 81.6992 108.797 81.6992 113.198C73.7268 113.686 70.4115 111.731 70.4115 105.782L70.4115 92.4178L67.1752 92.4178L67.2542 89.3212C70.8062 89.3212 70.4115 89.2397 70.4115 86.3061L70.4115 81.8241L75.3844 81.8241L75.3844 88.0988L81.936 88.0988C82.0149 92.3363 82.0149 92.3363 77.9103 92.3363Z" fill="black"/>
<path id="Vector_4" d="M103.562 109.206C102.457 111.162 99.2206 113.199 94.2478 113.199C89.0381 113.199 84.8546 110.836 84.8546 105.702C84.8546 101.139 87.7752 97.4719 94.8793 97.4719L102.457 97.4719C102.457 93.8049 100.484 92.4196 95.8265 92.4196L90.9325 92.4196C87.2226 92.4196 87.2226 92.4196 87.2226 88.2636L95.6686 88.2636C105.141 88.2636 107.351 92.3381 107.351 98.8573L107.351 113.036C103.562 112.955 103.562 112.955 103.562 109.206ZM102.378 101.465L95.5897 101.465C90.0643 101.465 89.9853 101.465 89.9853 105.621C89.9853 107.903 91.8798 109.206 95.3529 109.206C102.378 109.206 102.378 109.206 102.378 102.28L102.378 101.465Z" fill="black"/>
<path id="Vector_5" d="M125.111 113.037L118.086 113.037C113.271 113.037 113.271 113.037 113.271 108.718L113.271 86.3901C113.271 81.9897 113.271 81.9897 118.086 81.9897L124.954 81.9897C133.242 81.9897 136.162 85.4937 136.162 90.0571C136.162 93.1537 134.978 95.8429 132.137 96.4948C135.373 97.3912 137.109 100.814 137.109 103.91C137.109 108.637 134.426 113.037 125.111 113.037ZM125.111 86.3086L118.323 86.3086L118.323 95.1095L125.348 95.1095C131.11 95.1095 131.11 95.1095 131.11 90.7905C131.189 88.1829 130.163 86.3086 125.111 86.3086ZM125.427 99.2654L118.402 99.2654L118.402 108.637L125.348 108.637C131.9 108.637 131.9 108.637 131.9 103.829C131.821 99.6729 128.663 99.2654 125.427 99.2654Z" fill="black"/>
<path id="Vector_6" d="M151.319 92.3407C147.056 92.3407 147.056 93.563 147.056 99.1858L147.056 112.957C142.084 112.957 142.084 112.957 142.084 108.639L142.084 88.0217C145.872 88.0217 145.872 88.0217 145.872 91.4443C146.741 89.733 149.188 87.6143 154.476 87.9402C154.555 92.5036 154.555 92.3407 151.319 92.3407Z" fill="black"/>
<path id="Vector_7" d="M174.685 109.206C173.58 111.162 170.343 113.199 165.37 113.199C160.161 113.199 155.977 110.836 155.977 105.702C155.977 101.139 158.898 97.472 166.002 97.472L173.58 97.472C173.58 93.8049 171.606 92.4196 166.949 92.4196L162.055 92.4196C158.345 92.4196 158.345 92.4196 158.345 88.2637L166.791 88.2637C176.263 88.2637 178.474 92.3381 178.474 98.8573L178.474 113.036C174.685 112.955 174.685 112.955 174.685 109.206ZM173.501 101.465L166.712 101.465C161.187 101.465 161.108 101.465 161.108 105.621C161.108 107.903 163.002 109.206 166.476 109.206C173.501 109.206 173.501 109.206 173.501 102.28L173.501 101.465Z" fill="black"/>
<path id="Vector_8" d="M186.128 85.2487C183.839 85.2487 182.418 84.6782 182.418 82.1521C182.418 79.6259 183.918 79.0555 186.128 79.0555C188.26 79.0555 189.68 79.6259 189.68 82.1521C189.759 84.6782 188.339 85.2487 186.128 85.2487ZM183.681 108.473L183.681 88.0193C188.654 88.0193 188.654 88.0193 188.654 92.2567L188.654 112.874C183.681 112.955 183.681 112.955 183.681 108.473Z" fill="black"/>
<path id="Vector_9" d="M211.545 108.638L211.545 99.1037C211.545 94.7032 210.755 92.0956 205.704 92.0956C199.468 92.0956 199.468 92.0956 199.468 99.1037L199.468 112.957C194.495 112.957 194.495 112.957 194.495 108.638L194.495 88.1841C198.284 88.1841 198.284 88.1841 198.284 91.6881C199.152 89.9769 201.678 87.8581 207.124 87.8581C215.018 87.8581 216.596 92.5845 216.596 99.6741L216.596 113.038C211.545 112.957 211.545 112.957 211.545 108.638Z" fill="black"/>
</g>
<g id="Group 1000004423">
<path id="Vector_10" d="M45.2808 57.5424L13.9325 57.5424C6.215 57.5424 5.38089e-10 51.5027 4.59733e-10 44.003L1.41456e-10 13.5394C0 6.03963 6.215 0 13.9325 -1.44996e-10L45.2808 -4.71237e-10C52.9983 -5.51553e-10 59.2133 6.03963 59.2133 13.5394L59.2133 44.003C59.2133 51.5027 52.93 57.5424 45.2808 57.5424Z" fill="url(#paint0_linear_3_806)"/>
<path id="Vector_11" d="M42.9596 36.3686C43.3694 38.0942 43.6426 40.2844 43.7792 41.7445C43.8475 42.2091 43.6426 42.6737 43.2328 43.0055C42.823 43.3374 42.345 43.4038 41.8669 43.271L31.0077 40.4171C30.1881 43.7356 27.0465 46.2576 23.3584 46.2576C19.6704 46.2576 16.4605 43.7356 15.7092 40.218C15.5043 39.4216 16.0507 38.6915 16.8703 38.4924C17.6898 38.2933 18.4411 38.8243 18.646 39.6207C19.124 41.8109 21.1729 43.4038 23.4267 43.4038C26.1586 43.4038 28.3441 41.2799 28.3441 38.6252C28.3441 38.1606 28.549 37.7624 28.8905 37.4969C29.232 37.2314 29.71 37.165 30.1881 37.2314L40.5692 39.9525C40.296 38.0278 39.9546 36.2359 39.7497 35.7713C39.4082 35.3067 39.4082 34.7094 39.6814 34.2448C39.9546 33.7802 40.5692 33.5147 41.1156 33.5811C41.3205 33.5811 41.5254 33.6474 41.662 33.6474C44.3939 33.6474 46.5793 31.5236 46.5793 28.8688C46.5793 26.2141 44.3939 24.0902 41.662 24.0902C41.4571 24.0902 41.1839 24.0902 40.9107 24.1566C40.8424 24.1566 40.7741 24.1566 40.6375 24.1566L35.9933 27.276C35.7202 27.4751 35.447 27.5415 35.1738 27.5415C34.6957 27.5415 34.2176 27.3424 33.9444 26.9441C33.4664 26.2804 33.6713 25.4176 34.3542 24.953L39.7497 21.3691C39.818 21.3027 39.8863 21.3027 40.0229 21.2364C40.4326 20.5063 40.6375 19.7099 40.6375 18.9134C40.6375 16.2586 38.452 14.1348 35.7202 14.1348C32.9883 14.1348 30.8028 16.2586 30.8028 18.9134L30.8028 18.9798C30.8028 19.5771 30.8028 25.484 30.8028 29.0016C30.8028 30.3953 30.8028 31.5236 30.8028 32.0546C30.8028 32.851 30.1198 33.5147 29.3003 33.5147C28.4807 33.5147 27.7977 32.851 27.7977 32.0546C27.7977 31.4573 27.7977 30.329 27.7977 29.0016C27.7977 24.0902 27.7977 19.6435 27.7977 18.9134C27.7977 14.7321 31.3492 11.2809 35.6519 11.2809C39.9546 11.2809 43.506 14.7321 43.506 18.9134C43.506 19.7762 43.3694 20.639 43.0279 21.4355C46.6476 22.0992 49.4478 25.2185 49.4478 28.9352C49.5161 32.6519 46.7159 35.8376 42.9596 36.3686ZM16.2556 36.1695C16.9386 36.1695 17.5532 35.7049 17.6898 34.9748C17.8264 34.1784 17.3483 33.4483 16.5288 33.3156C14.2067 32.9174 12.5676 30.9263 12.5676 28.6034C12.5676 25.9486 14.7531 23.8248 17.4849 23.8248C17.5532 23.8248 17.6215 23.8248 17.6898 23.8248L22.7438 27.2096C23.017 27.4087 23.2902 27.4751 23.5633 27.4751C24.0414 27.4751 24.5195 27.276 24.7927 26.8778C25.2708 26.2141 25.0659 25.3513 24.3829 24.8867L19.2606 21.4355C18.7826 20.639 18.5094 19.7762 18.5094 18.8471C18.5094 16.1923 20.6949 14.0685 23.4267 14.0685C23.9048 14.0685 24.3146 14.1348 24.7244 14.2676C24.861 14.3339 24.9976 14.3339 25.1342 14.4003C25.8854 14.6658 26.7733 14.3339 27.0465 13.6039C27.3197 12.8738 26.9782 12.011 26.2269 11.7455C26.022 11.6791 25.7488 11.6128 25.5439 11.5464C24.861 11.3473 24.178 11.2809 23.4267 11.2809C19.124 11.2809 15.5726 14.7321 15.5726 18.9134C15.5726 19.7099 15.7092 20.4399 15.9141 21.17C12.2944 21.9 9.6308 24.953 9.6308 28.6697C9.6308 32.3201 12.2944 35.5058 15.9824 36.1695C16.119 36.1695 16.1873 36.1695 16.2556 36.1695Z" fill="white"/>
</g>
</g>
<defs>
<linearGradient id="paint0_linear_3_806" x1="64.2721" y1="50.6655" x2="28.8514" y2="26.9734" gradientUnits="userSpaceOnUse">
<stop stop-color="#7BD8C3"/>
<stop offset="1" stop-color="#6E6CC8"/>
</linearGradient>
</defs>
</svg>
